# xmcd CD database file
#
# Track frame offsets:
#	183
#	42208
#	86463
#	122015
#	171368
#	200745
#	220000
#	281108
#
# Disc length: 4122 seconds
#
# Revision: 0
# Processed by: cddbd v1.5.1PL0 Copyright (c) Steve Scherf et al.
# Submitted via: CDex 1.51
#
DISCID=73101808
DTITLE=Zoller and Lackerschmidt - Live Highlights '92
DYEAR=1992
DGENRE=Jazz
TTITLE0=No Greater Lunch
TTITLE1=Meant To Be
TTITLE2=Jassfriends
TTITLE3=In Your Own Sweet Way
TTITLE4=Circle Waltz
TTITLE5=When It's Time
TTITLE6=Hungarian Jazz Rhapsody
TTITLE7=Homage To O.P.
EXTD=YEAR: 1992
EXTT0=
EXTT1=
EXTT2=
EXTT3=
EXTT4=
EXTT5=
EXTT6=
EXTT7=
PLAYORDER=
